<svg width="490" height="315" viewBox="0 0 490 315" fill="none" xmlns="http://www.w3.org/2000/svg">
<g clip-path="url(#clip0_491_1612)">
<path d="M164.228 223.734L194.982 170.354H235.094L198.518 106.7L131.065 223.734H116.999L198.487 82.0872L249.283 170.369H282.384L215.023 53.3955L245.777 -0.0151978L374.556 223.734H265.833L242.211 182.638H202.038L178.431 223.734H164.228ZM293.007 182.638H256.43L272.92 211.36H353.251L245.717 24.6125L229.227 53.2585L303.644 182.638H293.007Z" fill="#555555"/>
<path d="M29.2153 305.928H10.6681L7.08665 314.452H0L16.6422 277.511H23.3936L40.1577 314.452H32.8882L29.2153 305.928ZM26.9293 300.57L19.9645 284.39L13.0455 300.54L26.9293 300.57Z" fill="#555555"/>
<path d="M68.5803 315.061C65.7717 315.066 62.9778 314.656 60.2897 313.843C57.9912 313.163 55.855 312.024 54.0107 310.495L56.4034 305.167C58.0896 306.44 59.9741 307.428 61.9813 308.09C64.1167 308.839 66.3628 309.224 68.626 309.231C70.7405 309.371 72.8519 308.917 74.7221 307.922C75.3373 307.571 75.8488 307.064 76.2048 306.452C76.5607 305.84 76.7484 305.144 76.749 304.437C76.7613 303.946 76.6652 303.458 76.4677 303.008C76.2702 302.558 75.976 302.157 75.606 301.834C74.7864 301.093 73.8133 300.542 72.7561 300.22C71.5826 299.825 69.9976 299.383 67.9859 298.881C65.6619 298.354 63.3717 297.689 61.1279 296.887C59.4118 296.218 57.8845 295.142 56.6778 293.751C55.3936 292.123 54.7487 290.083 54.8642 288.013C54.8389 286.038 55.4126 284.101 56.5101 282.457C57.7651 280.684 59.5061 279.309 61.5241 278.5C64.1318 277.428 66.9345 276.909 69.7538 276.978C72.0009 276.979 74.2389 277.265 76.4137 277.83C78.4191 278.312 80.33 279.125 82.0678 280.235L79.9037 285.562C78.3103 284.634 76.6049 283.913 74.8287 283.416C73.1722 282.92 71.4528 282.663 69.7233 282.655C67.5984 282.499 65.4752 282.981 63.6273 284.04C63.0128 284.423 62.5075 284.957 62.1604 285.592C61.8134 286.227 61.6362 286.94 61.646 287.663C61.63 288.152 61.7213 288.638 61.9135 289.088C62.1057 289.537 62.3941 289.939 62.7586 290.266C63.6065 290.97 64.593 291.488 65.6542 291.788C66.8124 292.168 68.3974 292.61 70.4091 293.082C72.7112 293.584 74.9729 294.255 77.1757 295.091C78.9358 295.742 80.5067 296.82 81.7477 298.226C83.0713 299.825 83.7409 301.864 83.6223 303.934C83.6422 305.895 83.0685 307.815 81.9763 309.444C80.7079 311.287 78.9205 312.712 76.8404 313.539C74.2235 314.616 71.4098 315.135 68.5803 315.061Z" fill="#555555"/>
<path d="M119.863 315.061C116.326 315.101 112.837 314.236 109.729 312.549C106.797 310.972 104.352 308.625 102.657 305.761C100.966 302.784 100.077 299.419 100.077 295.997C100.077 292.574 100.966 289.209 102.657 286.232C104.352 283.368 106.797 281.021 109.729 279.444C112.849 277.795 116.334 276.957 119.863 277.008C122.701 276.96 125.519 277.477 128.154 278.53C130.606 279.518 132.781 281.085 134.494 283.097L130.059 287.282C128.823 285.891 127.301 284.784 125.596 284.035C123.892 283.286 122.045 282.914 120.183 282.944C117.811 282.911 115.471 283.487 113.386 284.619C111.425 285.678 109.796 287.259 108.677 289.185C107.576 291.249 107.001 293.552 107.001 295.89C107.001 298.228 107.576 300.531 108.677 302.595C109.803 304.515 111.431 306.094 113.386 307.161C115.466 308.346 117.819 308.97 120.214 308.972C122.08 309.001 123.93 308.624 125.635 307.867C127.34 307.11 128.86 305.991 130.09 304.589L134.524 308.805C132.81 310.814 130.635 312.381 128.185 313.371C125.553 314.489 122.723 315.064 119.863 315.061Z" fill="#555555"/>
<path d="M181.22 308.714V314.452H153.468V277.511H180.488V283.279H160.372V292.853H178.202V298.5H160.372V308.714H181.22Z" fill="#555555"/>
<path d="M234.088 277.511V314.452H228.434L208.058 289.429V314.452H201.169V277.511H206.808L227.23 302.534V277.511H234.088Z" fill="#555555"/>
<path d="M256.369 277.511H272.554C276.193 277.444 279.796 278.237 283.07 279.824C286.028 281.248 288.503 283.508 290.187 286.324C291.845 289.279 292.716 292.609 292.716 295.997C292.716 299.384 291.845 302.714 290.187 305.669C288.491 308.476 286.02 310.733 283.07 312.169C279.791 313.739 276.19 314.521 272.554 314.452H256.369V277.511ZM272.249 308.653C274.714 308.715 277.158 308.194 279.382 307.131C281.372 306.157 283.023 304.608 284.121 302.686C285.264 300.658 285.843 298.361 285.798 296.035C285.845 293.693 285.266 291.381 284.121 289.337C283.014 287.422 281.365 285.876 279.382 284.893C277.156 283.837 274.713 283.316 272.249 283.371H263.258V308.714L272.249 308.653Z" fill="#555555"/>
<path d="M336.365 305.928H317.848L314.236 314.482H307.149L323.792 277.541H330.558L347.246 314.482H340.038L336.365 305.928ZM334.079 300.57L327.129 284.421L320.195 300.57H334.079Z" fill="#555555"/>
<path d="M397.142 277.511V314.452H391.488L371.112 289.429V314.452H364.239V277.511H369.893L390.299 302.534V277.511H397.142Z" fill="#555555"/>
<path d="M426.952 283.31H414.76V277.511H446.124V283.31H433.932V314.452H427.074L426.952 283.31Z" fill="#555555"/>
<path d="M475.08 315.061C472.271 315.066 469.478 314.656 466.789 313.843C464.488 313.209 462.34 312.111 460.48 310.616L462.857 305.289C464.544 306.562 466.428 307.55 468.435 308.211C470.571 308.96 472.817 309.346 475.08 309.353C477.194 309.493 479.306 309.039 481.176 308.044C481.791 307.693 482.303 307.185 482.659 306.573C483.015 305.961 483.202 305.266 483.203 304.558C483.215 304.067 483.119 303.58 482.922 303.13C482.724 302.68 482.43 302.279 482.06 301.956C481.24 301.215 480.267 300.664 479.21 300.342C478.037 299.946 476.452 299.505 474.44 299.003C472.116 298.476 469.826 297.81 467.582 297.009C465.855 296.308 464.331 295.189 463.147 293.751C461.82 292.119 461.152 290.051 461.272 287.952C461.255 285.978 461.828 284.043 462.918 282.396C464.17 280.666 465.887 279.325 467.871 278.53C470.479 277.458 473.282 276.94 476.101 277.008C478.348 277.009 480.586 277.296 482.761 277.861C484.766 278.343 486.677 279.156 488.415 280.266L486.251 285.593C484.658 284.665 482.952 283.944 481.176 283.447C479.52 282.95 477.8 282.694 476.071 282.686C473.946 282.529 471.823 283.011 469.975 284.071C469.362 284.454 468.859 284.989 468.514 285.624C468.17 286.259 467.996 286.972 468.009 287.693C467.99 288.181 468.078 288.667 468.268 289.117C468.457 289.566 468.743 289.969 469.106 290.296C469.954 291 470.94 291.519 472.002 291.818C473.16 292.199 474.745 292.64 476.772 293.112C479.068 293.616 481.325 294.287 483.523 295.121C485.283 295.773 486.854 296.85 488.095 298.257C489.419 299.855 490.088 301.894 489.97 303.965C489.99 305.925 489.416 307.846 488.324 309.475C487.058 311.261 485.3 312.641 483.264 313.447C480.677 314.546 477.89 315.095 475.08 315.061Z" fill="#555555"/>
</g>
<defs>
<clipPath id="clip0_491_1612">
<rect width="490" height="315" fill="white"/>
</clipPath>
</defs>
</svg>
