<svg xmlns="http://www.w3.org/2000/svg" viewBox="0 0 859.72 263.91"><defs><style>.cls-1{fill:#10ab68;}</style></defs><g id="Layer_2" data-name="Layer 2"><g id="Layer_1-2" data-name="Layer 1"><path class="cls-1" d="M178.56,209.44H149.27V94.55h7.08L166,108.17a51.87,51.87,0,0,1,34.76-13.41h25.86v29.18H200.76a22.09,22.09,0,0,0-8.69,1.72,21.69,21.69,0,0,0-11.8,11.8,22.23,22.23,0,0,0-1.71,8.69Z"/><path class="cls-1" d="M282.34,185a16.72,16.72,0,0,0,3.43.7c1.14.11,2.29.16,3.43.16a28.69,28.69,0,0,0,8.26-1.18,29.73,29.73,0,0,0,7.46-3.38,28.1,28.1,0,0,0,10.67-12.39l21.46,21.56a57.45,57.45,0,0,1-9.39,10.41,58.54,58.54,0,0,1-11.48,7.83,57,57,0,0,1-13,4.88,58.75,58.75,0,0,1-14,1.66,58,58,0,0,1-41.46-17,58.86,58.86,0,0,1-12.6-19.15,62.93,62.93,0,0,1-4.62-24.41,65,65,0,0,1,4.62-24.89,56.23,56.23,0,0,1,31.27-31.54,59.23,59.23,0,0,1,22.79-4.39,58,58,0,0,1,14.06,1.71,59,59,0,0,1,24.56,12.82,57.84,57.84,0,0,1,9.44,10.46Zm15-60.39a16.76,16.76,0,0,0-4-1,39.22,39.22,0,0,0-4.13-.21,29.37,29.37,0,0,0-11.31,2.19,27,27,0,0,0-9.23,6.28,29.57,29.57,0,0,0-6.17,9.82,35.12,35.12,0,0,0-2.25,12.92c0,1.08.05,2.29.16,3.65a40,40,0,0,0,.54,4.13c.25,1.39.55,2.74.91,4a15.16,15.16,0,0,0,1.39,3.44Z"/><path class="cls-1" d="M416.5,209.44H349.56V180.26H416.5a7.31,7.31,0,0,0,7.29-7.29q0-3.12-2.14-4.08a12.55,12.55,0,0,0-5.15-1H386A35.38,35.38,0,0,1,371.76,165,36.75,36.75,0,0,1,352.4,145.5a37.25,37.25,0,0,1,0-28.53A36.26,36.26,0,0,1,386,94.76h59.33v29.18H386a7.32,7.32,0,0,0-7.29,7.29,7.34,7.34,0,0,0,2.14,5.32,7,7,0,0,0,5.15,2.19H416.5a39.68,39.68,0,0,1,14.16,2.53,35.86,35.86,0,0,1,11.58,7,33.28,33.28,0,0,1,7.84,10.84A32.86,32.86,0,0,1,453,173a35,35,0,0,1-2.89,14.21,38.13,38.13,0,0,1-7.84,11.59,36.23,36.23,0,0,1-11.58,7.83A35.78,35.78,0,0,1,416.5,209.44Z"/><path class="cls-1" d="M497.81,209.44H468.53V48.85h29.28V99.59A34.22,34.22,0,0,1,508.65,94,39.57,39.57,0,0,1,520,92.29a49.79,49.79,0,0,1,20,4,50.61,50.61,0,0,1,16.25,11.05,52.69,52.69,0,0,1,10.94,16.41,50.3,50.3,0,0,1,4,20v65.65h-29.5V143.79h.22a21.56,21.56,0,0,0-1.72-8.53,22.11,22.11,0,0,0-11.69-11.75,21.21,21.21,0,0,0-8.48-1.72,22.27,22.27,0,0,0-8.69,1.72,21.82,21.82,0,0,0-11.8,11.75,21.56,21.56,0,0,0-1.72,8.53Z"/><path class="cls-1" d="M621.51,209.44H592V48.85h29.51Z"/><path class="cls-1" d="M178.09,27.14c-18.5-25-54-29.94-78.68-25.87C92.6,2.4,71,7.05,52.48,24c-38.25,34.89-37.75,99.2-29.11,154.84,7.41,47.74-9.36,69-21.76,78A3.93,3.93,0,0,0,4,263.91c10.93-.1,24.81-2.48,35.93-12a47.08,47.08,0,0,0,10.18-12.53c6.71-11.76,8.17-24.79,7.61-39.11a61.72,61.72,0,0,1,8-33.63c9.36-16.05,27.43-32.57,62.06-31.12a4.38,4.38,0,0,0,3.68-7.05c-6.86-8.84-21.15-21.23-44.44-14.28C67.51,120,57.73,135.33,53,150.78c-8.92-52,9.28-98.53,43.11-115.68,7.22-3.66,22-9.43,44-6.61-4.68.21-32.9,2-52.88,26-16.47,19.74-16.8,41.91-16.7,47.88,12.38,1.78,20.85-.46,25.85-2.42C122,89.93,133.6,57.65,157,47a31.27,31.27,0,0,1,10.06-2.4,52.25,52.25,0,0,1,10.13-.39,6.21,6.21,0,0,0,5.86-9A57.14,57.14,0,0,0,178.09,27.14Z"/><path class="cls-1" d="M710.7,94.55v63.5a24.27,24.27,0,0,1-1.72,9,26.66,26.66,0,0,1-4.72,7.78,24,24,0,0,1-7,5.53,18.26,18.26,0,0,1-8.53,2.09,24.28,24.28,0,0,1-8.63-1.51,19.07,19.07,0,0,1-7-4.56,22,22,0,0,1-4.77-7.61,29.43,29.43,0,0,1-1.77-10.68V94.55H637.32v63.5a58.86,58.86,0,0,0,4,22.27,48.47,48.47,0,0,0,27.41,27.51,53,53,0,0,0,20,3.76,26.34,26.34,0,0,0,10-2q5-2,9.81-4.08s.43,30.69-28,43.49a2.34,2.34,0,0,0,1,4.46h0a56.37,56.37,0,0,0,22.74-4.61,60.1,60.1,0,0,0,18.61-12.55,59.07,59.07,0,0,0,12.61-18.56A57.83,57.83,0,0,0,740.2,195V94.55Z"/><path class="cls-1" d="M830.22,94.55v63.5a24.07,24.07,0,0,1-1.72,9,26.23,26.23,0,0,1-4.72,7.78,24,24,0,0,1-7,5.53,18.32,18.32,0,0,1-8.53,2.09,24.3,24.3,0,0,1-8.64-1.51,19,19,0,0,1-7-4.56,21.92,21.92,0,0,1-4.78-7.61A29.43,29.43,0,0,1,786,158.05V94.55H756.84v63.5a58.86,58.86,0,0,0,4,22.27,48.53,48.53,0,0,0,27.42,27.51,53,53,0,0,0,20,3.76,26.33,26.33,0,0,0,10-2q5-2,9.82-4.08s.42,30.69-28,43.49a2.34,2.34,0,0,0,1,4.46h0a56.37,56.37,0,0,0,22.74-4.61,60.15,60.15,0,0,0,18.62-12.55A59,59,0,0,0,855,217.7,57.65,57.65,0,0,0,859.72,195V94.55Z"/></g></g></svg>